<svg xmlns="http://www.w3.org/2000/svg" viewBox="0 0 512 512"><defs><linearGradient id="g" x1="0" y1="0" x2="1" y2="1"><stop stop-color="#16783a"/><stop offset="1" stop-color="#06351f"/></linearGradient><radialGradient id="y"><stop stop-color="#ffe83b"/><stop offset="1" stop-color="#f5ad00"/></radialGradient></defs><rect width="512" height="512" rx="110" fill="url(#g)"/><ellipse cx="270" cy="326" rx="148" ry="92" fill="url(#y)"/><circle cx="211" cy="218" r="96" fill="url(#y)"/><path d="M350 291c48-34 94-25 123 10-19 51-65 78-121 75 17-26 18-56-2-85z" fill="#f7bd09"/><circle cx="183" cy="192" r="18" fill="#fff"/><circle cx="184" cy="193" r="11" fill="#111"/><circle cx="180" cy="188" r="3" fill="#fff"/><path d="M133 222c-38-4-73 13-91 34 26 15 62 20 94 10 24-8 30-38 10-51-4 4-8 6-13 7z" fill="#ff6b00"/><path d="M52 256c30 3 61 1 90-9-4 18-22 27-41 26-19-1-36-7-49-17z" fill="#e84300"/><ellipse cx="273" cy="335" rx="116" ry="66" fill="#ffc814" opacity=".35"/></svg>